<svg xmlns="http://www.w3.org/2000/svg" viewBox="0 0 128 128">
    <path d="M64.004 25.602c-17.067 0-27.73 8.53-32 25.597 6.4-8.531 13.867-11.73 22.403-9.597 4.87 1.2 8.347 4.676 12.2 8.53C72.27 55.793 79.27 62.73 96.004 62.73c17.067 0 27.73-8.53 32-25.597-6.4 8.531-13.867 11.73-22.403 9.597-4.87-1.2-8.347-4.676-12.2-8.53-5.663-5.661-12.664-12.598-29.397-12.598zm-32 37.33c-17.067 0-27.73 8.531-32 25.598 6.4-8.532 13.867-11.73 22.403-9.598 4.87 1.2 8.347 4.676 12.2 8.53 5.664 5.662 12.664 12.599 29.398 12.599 17.067 0 27.73-8.53 32-25.597-6.4 8.531-13.867 11.73-22.403 9.597-4.87-1.2-8.347-4.676-12.2-8.53-5.663-5.662-12.664-12.599-29.398-12.599z" fill="#38bdf8"></path>
</svg> 